<?xml version="1.0" encoding="UTF-8" standalone="no"?>
<!-- Generator: Adobe Illustrator 12.0.1, SVG Export Plug-In . SVG Version: 6.00 Build 51448)  -->

<svg
   version="1.1"
   id="Layer_1"
   width="300"
   height="324.7"
   viewBox="0 0 300 324.7"
   style="overflow:visible;enable-background:new 0 0 300 324.7;"
   xml:space="preserve"
   sodipodi:version="0.32"
   inkscape:version="1.1.2 (0a00cf5339, 2022-02-04)"
   sodipodi:docname="yes.svg"
   xmlns:inkscape="http://www.inkscape.org/namespaces/inkscape"
   xmlns:sodipodi="http://sodipodi.sourceforge.net/DTD/sodipodi-0.dtd"
   xmlns="http://www.w3.org/2000/svg"
   xmlns:svg="http://www.w3.org/2000/svg"
   xmlns:rdf="http://www.w3.org/1999/02/22-rdf-syntax-ns#"
   xmlns:cc="http://creativecommons.org/ns#"
   xmlns:dc="http://purl.org/dc/elements/1.1/"><metadata
   id="metadata1967"><rdf:RDF><cc:Work
       rdf:about=""><dc:format>image/svg+xml</dc:format><dc:type
         rdf:resource="http://purl.org/dc/dcmitype/StillImage" /></cc:Work></rdf:RDF></metadata><defs
   id="defs1965" /><sodipodi:namedview
   inkscape:window-height="1136"
   inkscape:window-width="1920"
   inkscape:pageshadow="2"
   inkscape:pageopacity="0.0"
   guidetolerance="10.0"
   gridtolerance="10.0"
   objecttolerance="10.0"
   borderopacity="1.0"
   bordercolor="#666666"
   pagecolor="#ffffff"
   id="base"
   inkscape:zoom="1.1610717"
   inkscape:cx="150.29218"
   inkscape:cy="162.35001"
   inkscape:window-x="0"
   inkscape:window-y="0"
   inkscape:current-layer="g1960"
   inkscape:pagecheckerboard="0"
   showgrid="false"
   inkscape:window-maximized="1" />
<g
   id="g1960">
	<path
   d="M0,223.7C0,213.3,6.9,204,20.8,196c9.2-4.6,16.2-6.9,20.8-6.9c5.8,1.2,9.8,4.6,12.1,10.4c6.9,16.2,11.6,27.2,13.9,32.9   c2.3,4.6,4.6,6.9,6.9,6.9s4.6-1.7,6.9-5.2c39.3-69.4,74.6-123.1,105.8-161.3c24.3-28.9,39.3-45.7,45.1-50.3   C250.9,8.7,272.8,1.2,298.3,0l1.7,8.7c-19.7,19.7-53.8,63.6-102.3,131.8c-47.4,68.2-81.5,122-102.3,161.3   C90.8,312.1,85,318.5,78,320.8c-3.5,3.5-11,4.6-22.5,3.5c-8.1,1.2-13.9,0-17.3-3.5c-3.5-2.3-6.9-6.9-10.4-13.9   c-11.6-27.7-20.2-51.4-26-71.1C1.7,231.2,1.2,227.2,0,223.7z"
   id="path1962"
   style="fill:#008000" />
</g>
</svg>
